<svg xmlns="http://www.w3.org/2000/svg" xml:space="preserve" id="svg5" width="61.992" height="199.212" version="1.1" viewBox="0 0 16.402 52.708"><g id="layer1" transform="translate(-130.073 -132.62)"><path id="path4024" d="m131.169 134.783 5.719 5.72-5.72 5.718z" style="opacity:.596939;fill:#73b6d9;fill-opacity:.125;fill-rule:evenodd;stroke:none;stroke-width:.0154681"/><path id="path4026" d="m143.9 133.49-5.719 5.719-5.719-5.719z" style="opacity:.596939;fill:#73b6d9;fill-opacity:.125;fill-rule:evenodd;stroke:none;stroke-width:.0154681;stroke-opacity:1"/><path id="path4028" d="m145.38 134.411-6.092 6.091 6.092 6.092z" style="opacity:.596939;fill:#73b6d9;fill-opacity:.125;fill-rule:evenodd;stroke:none;stroke-width:.0164757"/><path id="path4030" d="m144.166 147.648-5.985-5.985-5.985 5.985z" style="opacity:.596939;fill:#73b6d9;fill-opacity:.125;fill-rule:evenodd;stroke:none;stroke-width:.0161879"/><path id="path4032" d="m131.532 151.306 4.575 4.575-4.575 4.575z" style="opacity:.596939;fill:#73b6d9;fill-opacity:.125;fill-rule:evenodd;stroke:none;stroke-width:.0123745"/><path id="path4034" d="m142.756 149.742-4.575 4.575-4.575-4.575z" style="opacity:.596939;fill:#73b6d9;fill-opacity:.125;fill-rule:evenodd;stroke:none;stroke-width:.0123745"/><path id="path4036" d="m145.017 151.008-4.873 4.873 4.873 4.873z" style="opacity:.596939;fill:#73b6d9;fill-opacity:.125;fill-rule:evenodd;stroke:none;stroke-width:.0131805"/><path id="path4038" d="m142.969 162.126-4.788-4.788-4.788 4.788z" style="opacity:.596939;fill:#73b6d9;fill-opacity:.125;fill-rule:evenodd;stroke:none;stroke-width:.0129503"/><path id="path4040" d="m132.398 165.761 3.432 3.432-3.432 3.431z" style="opacity:.596939;fill:#73b6d9;fill-opacity:.125;fill-rule:evenodd;stroke:none;stroke-width:.00928086"/><path id="path4042" d="m141.612 164.456-3.431 3.431-3.431-3.43z" style="opacity:.596939;fill:#73b6d9;fill-opacity:.125;fill-rule:evenodd;stroke:none;stroke-width:.00928086"/><path id="path4044" d="m144.1 165.538-3.655 3.655 3.655 3.654z" style="opacity:.596939;fill:#73b6d9;fill-opacity:.125;fill-rule:evenodd;stroke:none;stroke-width:.00988539"/><path id="path4046" d="m141.772 174.538-3.591-3.59-3.591 3.59z" style="opacity:.596939;fill:#73b6d9;fill-opacity:.125;fill-rule:evenodd;stroke:none;stroke-width:.00971273"/><path id="path4048" d="m133.983 177.803 2.574 2.573-2.574 2.574z" style="opacity:.596939;fill:#73b6d9;fill-opacity:.125;fill-rule:evenodd;stroke:none;stroke-width:.00696064"/><path id="path4050" d="m140.754 176.162-2.573 2.574-2.573-2.574z" style="opacity:.596939;fill:#73b6d9;fill-opacity:.125;fill-rule:evenodd;stroke:none;stroke-width:.00696064"/><path id="path4052" d="m142.495 177.635-2.741 2.741 2.74 2.741z" style="opacity:.596939;fill:#73b6d9;fill-opacity:.125;fill-rule:evenodd;stroke:none;stroke-width:.00741404"/><path id="path4054" d="m140.874 184.65-2.693-2.693-2.693 2.693z" style="opacity:.596939;fill:#73b6d9;fill-opacity:.125;fill-rule:evenodd;stroke:none;stroke-width:.00728458"/><path id="rect4056" d="M130.073 132.62h16.402v52.708h-16.402z" style="fill:#fff;fill-opacity:0;fill-rule:evenodd;stroke:none;stroke-width:.0588485"/></g><style id="style3916">.st1,.st2{fill-rule:evenodd;clip-rule:evenodd;fill:#e4eaf2}.st2{opacity:.6;enable-background:new}</style></svg>